<svg width="148" height="326" viewBox="0 0 148 326" fill="none" xmlns="http://www.w3.org/2000/svg">
<mask id="mask0_9_83" style="mask-type:luminance" maskUnits="userSpaceOnUse" x="-119" y="0" width="267" height="326">
<path d="M141.634 256.049C133.045 315.081 99.5065 336.281 41.0195 319.648C-17.4675 303.015 -61.844 273.499 -92.11 231.1C-122.376 188.7 -126.534 139.211 -104.584 82.6325C-82.6348 26.0542 -39.4172 -1.417 25.0685 0.219005C89.5542 1.855 127.25 30.1442 138.157 85.0865C149.064 140.029 150.223 197.016 141.634 256.049Z" fill="white"/>
</mask>
<g mask="url(#mask0_9_83)">
<path d="M141.634 256.049C133.045 315.081 99.5065 336.281 41.0195 319.648C-17.4675 303.015 -61.844 273.499 -92.11 231.1C-122.376 188.7 -126.534 139.211 -104.584 82.6325C-82.6348 26.0542 -39.4172 -1.417 25.0685 0.219005C89.5542 1.855 127.25 30.1442 138.157 85.0865C149.064 140.029 150.223 197.016 141.634 256.049Z" fill="#DDDD22" fill-opacity="0.25"/>
</g>
</svg>
