<svg width="197" height="508" viewBox="0 0 197 508" fill="none" xmlns="http://www.w3.org/2000/svg">
<mask id="mask0_9_74" style="mask-type:luminance" maskUnits="userSpaceOnUse" x="0" y="0" width="416" height="508">
<path d="M406.378 399.844C392.959 492.073 340.561 525.194 249.184 499.208C157.807 473.222 88.476 427.108 41.19 360.865C-6.09602 294.622 -12.5925 217.303 21.7005 128.908C55.9935 40.5125 123.514 -2.40699 224.263 0.149007C325.012 2.70501 383.907 46.9025 400.947 132.742C417.987 218.581 419.797 307.615 406.378 399.844Z" fill="white"/>
</mask>
<g mask="url(#mask0_9_74)">
<path d="M406.378 399.844C392.959 492.073 340.561 525.194 249.184 499.208C157.807 473.222 88.476 427.108 41.19 360.865C-6.09602 294.622 -12.5925 217.303 21.7005 128.908C55.9935 40.5125 123.514 -2.40699 224.263 0.149007C325.012 2.70501 383.907 46.9025 400.947 132.742C417.987 218.581 419.797 307.615 406.378 399.844Z" fill="#8989E6" fill-opacity="0.25"/>
</g>
</svg>
